<svg width="64" height="64" viewBox="0 0 64 64" fill="none" xmlns="http://www.w3.org/2000/svg">
<path d="M32 46C35.3137 46 38 43.3137 38 40C38 36.6863 35.3137 34 32 34C28.6863 34 26 36.6863 26 40C26 43.3137 28.6863 46 32 46Z" stroke="currentColor" stroke-width="2" stroke-miterlimit="10" stroke-linecap="square"/>
<path d="M17 16C20.866 16 24 12.866 24 9C24 5.13401 20.866 2 17 2C13.134 2 10 5.13401 10 9C10 12.866 13.134 16 17 16Z" stroke="currentColor" stroke-width="2" stroke-miterlimit="10" stroke-linecap="square"/>
<path d="M24 62V52H40V62" stroke="currentColor" stroke-width="2" stroke-miterlimit="10" stroke-linecap="square"/>
<path d="M12 44L24 52" stroke="currentColor" stroke-width="2" stroke-miterlimit="10" stroke-linecap="square"/>
<path d="M52 44L40 52" stroke="currentColor" stroke-width="2" stroke-miterlimit="10" stroke-linecap="square"/>
<path d="M2 50V34C2 30.8174 3.26428 27.7652 5.51472 25.5147C7.76516 23.2643 10.8174 22 14 22H20C22.9526 21.9957 25.8022 23.0843 28 25.056" stroke="currentColor" stroke-width="2" stroke-miterlimit="10" stroke-linecap="square"/>
<path d="M47 16C50.866 16 54 12.866 54 9C54 5.13401 50.866 2 47 2C43.134 2 40 5.13401 40 9C40 12.866 43.134 16 47 16Z" stroke="currentColor" stroke-width="2" stroke-miterlimit="10" stroke-linecap="square"/>
<path d="M62 50V34C62 30.8174 60.7357 27.7652 58.4853 25.5147C56.2348 23.2643 53.1826 22 50 22H44C41.0474 21.9957 38.1978 23.0843 36 25.056" stroke="currentColor" stroke-width="2" stroke-miterlimit="10" stroke-linecap="square"/>
</svg>
