<svg width="64" height="64" viewBox="0 0 64 64" fill="none" xmlns="http://www.w3.org/2000/svg">
<path d="M40.912 7.44598L56.492 23.026" stroke="currentColor" stroke-width="2" stroke-miterlimit="10"/>
<path d="M34.6 10.742C25.5 7.44599 16 9.41599 8 20L16.328 28.348" stroke="currentColor" stroke-width="2" stroke-miterlimit="10"/>
<path d="M35.652 47.672L44 56C54.584 48 56.554 38.5 53.258 29.4" stroke="currentColor" stroke-width="2" stroke-miterlimit="10"/>
<path d="M28 52L12 36C12 36 24.986 4.58399 61.312 2.68799C59.258 38.858 28 52 28 52Z" stroke="currentColor" stroke-width="2" stroke-miterlimit="10" stroke-linecap="square"/>
<path d="M37 32C39.7614 32 42 29.7614 42 27C42 24.2386 39.7614 22 37 22C34.2386 22 32 24.2386 32 27C32 29.7614 34.2386 32 37 32Z" stroke="currentColor" stroke-width="2" stroke-miterlimit="10" stroke-linecap="square"/>
<path d="M5.75799 49.758C6.88961 48.6651 8.40522 48.0603 9.9784 48.074C11.5516 48.0876 13.0565 48.7186 14.1689 49.8311C15.2814 50.9435 15.9124 52.4484 15.926 54.0216C15.9397 55.5948 15.3349 57.1104 14.242 58.242C11.9 60.586 2.34399 61.656 2.34399 61.656C2.34399 61.656 3.41399 52.1 5.75799 49.758Z" stroke="currentColor" stroke-width="2" stroke-miterlimit="10" stroke-linecap="square"/>
</svg>
