<svg width="64" height="64" viewBox="0 0 64 64" fill="none" xmlns="http://www.w3.org/2000/svg">
<path d="M32 22C35.3137 22 38 19.3137 38 16C38 12.6863 35.3137 10 32 10C28.6863 10 26 12.6863 26 16C26 19.3137 28.6863 22 32 22Z" stroke="currentColor" stroke-width="2" stroke-miterlimit="10" stroke-linecap="square"/>
<path d="M32 54C35.3137 54 38 51.3137 38 48C38 44.6863 35.3137 42 32 42C28.6863 42 26 44.6863 26 48C26 51.3137 28.6863 54 32 54Z" stroke="currentColor" stroke-width="2" stroke-miterlimit="10" stroke-linecap="square"/>
<path d="M16 38C19.3137 38 22 35.3137 22 32C22 28.6863 19.3137 26 16 26C12.6863 26 10 28.6863 10 32C10 35.3137 12.6863 38 16 38Z" stroke="currentColor" stroke-width="2" stroke-miterlimit="10" stroke-linecap="square"/>
<path d="M48 38C51.3137 38 54 35.3137 54 32C54 28.6863 51.3137 26 48 26C44.6863 26 42 28.6863 42 32C42 35.3137 44.6863 38 48 38Z" stroke="currentColor" stroke-width="2" stroke-miterlimit="10" stroke-linecap="square"/>
<path d="M32 62C48.5685 62 62 48.5685 62 32C62 15.4315 48.5685 2 32 2C15.4315 2 2 15.4315 2 32C2 48.5685 15.4315 62 32 62Z" stroke="currentColor" stroke-width="2" stroke-miterlimit="10" stroke-linecap="square"/>
<path d="M32 62H62" stroke="currentColor" stroke-width="2" stroke-miterlimit="10"/>
</svg>
