<svg width="64" height="64" viewBox="0 0 64 64" fill="none" xmlns="http://www.w3.org/2000/svg">
<path d="M36 4H28C24.6863 4 22 6.68629 22 10V42C22 45.3137 24.6863 48 28 48H36C39.3137 48 42 45.3137 42 42V10C42 6.68629 39.3137 4 36 4Z" stroke="currentColor" stroke-width="2" stroke-miterlimit="10" stroke-linecap="square"/>
<path d="M22 16H26" stroke="currentColor" stroke-width="2" stroke-miterlimit="10" stroke-linecap="square"/>
<path d="M22 26H26" stroke="currentColor" stroke-width="2" stroke-miterlimit="10" stroke-linecap="square"/>
<path d="M38 16H42" stroke="currentColor" stroke-width="2" stroke-miterlimit="10" stroke-linecap="square"/>
<path d="M38 26H42" stroke="currentColor" stroke-width="2" stroke-miterlimit="10" stroke-linecap="square"/>
<path d="M22 36H26" stroke="currentColor" stroke-width="2" stroke-miterlimit="10" stroke-linecap="square"/>
<path d="M38 36H42" stroke="currentColor" stroke-width="2" stroke-miterlimit="10" stroke-linecap="square"/>
<path d="M36 48V60" stroke="currentColor" stroke-width="2" stroke-miterlimit="10" stroke-linecap="square"/>
<path d="M28 48V60" stroke="currentColor" stroke-width="2" stroke-miterlimit="10" stroke-linecap="square"/>
<path d="M13.514 17.514C12.3995 18.6284 11.5154 19.9513 10.9122 21.4074C10.309 22.8634 9.99857 24.424 9.99857 26C9.99857 27.5761 10.309 29.1367 10.9122 30.5927C11.5154 32.0487 12.3995 33.3717 13.514 34.486" stroke="currentColor" stroke-width="2" stroke-miterlimit="10" stroke-linecap="square"/>
<path d="M7.858 11.858C4.10736 15.6087 2.00027 20.6958 2.00027 26C2.00027 31.3043 4.10736 36.3913 7.858 40.142" stroke="currentColor" stroke-width="2" stroke-miterlimit="10" stroke-linecap="square"/>
<path d="M50.486 17.524C52.7363 19.7745 54.0004 22.8266 54.0004 26.009C54.0004 29.1915 52.7363 32.2436 50.486 34.494" stroke="currentColor" stroke-width="2" stroke-miterlimit="10" stroke-linecap="square"/>
<path d="M56.142 11.866C59.8926 15.6167 61.9997 20.7037 61.9997 26.008C61.9997 31.3122 59.8926 36.3993 56.142 40.15" stroke="currentColor" stroke-width="2" stroke-miterlimit="10" stroke-linecap="square"/>
</svg>
