<svg width="64" height="64" viewBox="0 0 64 64" fill="none" xmlns="http://www.w3.org/2000/svg">
<path d="M32 48C32.5523 48 33 47.5523 33 47C33 46.4477 32.5523 46 32 46C31.4477 46 31 46.4477 31 47C31 47.5523 31.4477 48 32 48Z" fill="currentColor" stroke="currentColor" stroke-width="2" stroke-miterlimit="10" stroke-linecap="square"/>
<path d="M32 60C47.464 60 60 47.464 60 32C60 16.536 47.464 4 32 4C16.536 4 4 16.536 4 32C4 47.464 16.536 60 32 60Z" stroke="currentColor" stroke-width="2" stroke-miterlimit="10" stroke-linecap="square"/>
<path d="M24.018 22.95C25.256 18.234 29.102 15.792 33.408 16.014C37.66 16.232 41.618 18.572 41.436 23.998C41.176 31.712 32.978 30.666 32.062 38" stroke="currentColor" stroke-width="2" stroke-miterlimit="10" stroke-linecap="square"/>
</svg>
