<svg width="64" height="64" viewBox="0 0 64 64" fill="none" xmlns="http://www.w3.org/2000/svg">
<path d="M15.864 50C19.5038 45.1492 25.376 42 31.9998 42C38.6238 42 44.496 45.1492 48.1358 50" stroke="currentColor" stroke-width="2" stroke-miterlimit="10"/>
<path d="M32 35C36.4182 35 40 31.4182 40 27C40 22.5818 36.4182 19 32 19C27.5818 19 24 22.5818 24 27C24 31.4182 27.5818 35 32 35Z" stroke="currentColor" stroke-width="2" stroke-miterlimit="10"/>
<path d="M56 34C56 52 32 60 32 60C32 60 8 52 8 34V10L32 4L56 10V34Z" stroke="currentColor" stroke-width="2" stroke-miterlimit="10" stroke-linecap="square"/>
</svg>
