<svg width="64" height="64" viewBox="0 0 64 64" fill="none" xmlns="http://www.w3.org/2000/svg">
<path d="M40 30H24C22.8954 30 22 30.8954 22 32V40C22 41.1046 22.8954 42 24 42H40C41.1046 42 42 41.1046 42 40V32C42 30.8954 41.1046 30 40 30Z" stroke="currentColor" stroke-width="2" stroke-miterlimit="10" stroke-linecap="square"/>
<path d="M26 30V22C26 18.686 28.686 16 32 16C35.314 16 38 18.686 38 22V30" stroke="currentColor" stroke-width="2" stroke-miterlimit="10" stroke-linecap="square"/>
<path d="M56 34C56 52 32 60 32 60C32 60 8 52 8 34V10L32 4L56 10V34Z" stroke="currentColor" stroke-width="2" stroke-miterlimit="10" stroke-linecap="square"/>
</svg>
