<svg width="64" height="64" viewBox="0 0 64 64" fill="none" xmlns="http://www.w3.org/2000/svg">
<path d="M32 41.288C29.8094 40.6196 27.8174 39.4216 26.2 37.8C24.8998 36.4999 23.8685 34.9565 23.1648 33.2579C22.4612 31.5592 22.099 29.7386 22.099 27.9C22.099 26.0613 22.4612 24.2407 23.1648 22.5421C23.8685 20.8434 24.8998 19.3 26.2 18L36.1 8.09997C37.4 6.7998 38.9435 5.76844 40.6421 5.06479C42.3408 4.36113 44.1614 3.99896 46 3.99896C47.8386 3.99896 49.6593 4.36113 51.3579 5.06479C53.0566 5.76844 54.6 6.7998 55.9 8.09997C57.2002 9.40001 58.2315 10.9434 58.9352 12.6421C59.6389 14.3407 60.001 16.1613 60.001 18C60.001 19.8386 59.6389 21.6592 58.9352 23.3579C58.2315 25.0565 57.2002 26.5999 55.9 27.9L49.8 34" stroke="currentColor" stroke-width="2" stroke-miterlimit="10" stroke-linecap="square"/>
<path d="M32 22.712C34.1906 23.3804 36.1827 24.5784 37.8 26.2C39.1002 27.5 40.1315 29.0434 40.8352 30.7421C41.5388 32.4407 41.901 34.2613 41.901 36.1C41.901 37.9386 41.5388 39.7592 40.8352 41.4579C40.1315 43.1565 39.1002 44.6999 37.8 46L27.9 55.9C26.6 57.2002 25.0566 58.2315 23.3579 58.9352C21.6593 59.6388 19.8386 60.001 18 60.001C16.1614 60.001 14.3408 59.6388 12.6421 58.9352C10.9435 58.2315 9.40004 57.2002 8.1 55.9C6.79983 54.5999 5.76847 53.0565 5.06482 51.3579C4.36116 49.6592 3.99899 47.8386 3.99899 46C3.99899 44.1613 4.36116 42.3407 5.06482 40.6421C5.76847 38.9434 6.79983 37.4 8.1 36.1L14.2 30" stroke="currentColor" stroke-width="2" stroke-miterlimit="10" stroke-linecap="square"/>
</svg>
