<svg width="64" height="64" viewBox="0 0 64 64" fill="none" xmlns="http://www.w3.org/2000/svg">
<path d="M58.764 18.434C55.7163 12.4157 50.7291 7.60013 44.6077 4.76505C38.4863 1.92997 31.588 1.24083 25.0267 2.80891C18.4654 4.37699 12.6241 8.11075 8.44608 13.4073C4.26804 18.7038 1.99712 25.254 2 32" stroke="currentColor" stroke-width="2" stroke-miterlimit="10"/>
<path d="M56.766 2.44006L58.766 18.4401L42.766 16.4401" stroke="currentColor" stroke-width="2" stroke-miterlimit="10" stroke-linecap="square"/>
<path d="M5.23599 45.566C8.28368 51.5844 13.2709 56.3999 19.3923 59.235C25.5137 62.0701 32.412 62.7592 38.9733 61.1911C45.5346 59.6231 51.3759 55.8893 55.5539 50.5928C59.732 45.2962 62.0029 38.7461 62 32" stroke="currentColor" stroke-width="2" stroke-miterlimit="10"/>
<path d="M7.23401 61.5601L5.23401 45.5601L21.234 47.5601" stroke="currentColor" stroke-width="2" stroke-miterlimit="10" stroke-linecap="square"/>
</svg>
