<svg width="64" height="64" viewBox="0 0 64 64" fill="none" xmlns="http://www.w3.org/2000/svg">
<path d="M49.242 31.992C49.736 33.912 50 35.926 50 38C50 51.254 39.254 62 26 62C12.746 62 2 51.254 2 38C2 24.746 12.746 14 26 14C28.074 14 30.088 14.264 32.006 14.758" stroke="currentColor" stroke-width="2" stroke-miterlimit="10" stroke-linecap="square"/>
<path d="M26 52C33.732 52 40 45.732 40 38C40 30.268 33.732 24 26 24C18.268 24 12 30.268 12 38C12 45.732 18.268 52 26 52Z" stroke="currentColor" stroke-width="2" stroke-miterlimit="10" stroke-linecap="square"/>
<path d="M26 38L58 6" stroke="currentColor" stroke-width="2" stroke-miterlimit="10"/>
<path d="M50 14L48 4L40 12L42 22L52 24L60 16L50 14Z" stroke="currentColor" stroke-width="2" stroke-miterlimit="10" stroke-linecap="square"/>
</svg>
