<svg width="64" height="64" viewBox="0 0 64 64" fill="none" xmlns="http://www.w3.org/2000/svg">
<path d="M24 38V44" stroke="currentColor" stroke-width="2" stroke-miterlimit="10" stroke-linecap="square"/>
<path d="M48.2552 34.9555L32 32V20C32 17.7909 30.2091 16 28 16C25.7909 16 24 17.7909 24 20V32.7966V38H20C17.7909 38 16 39.7908 16 42V47.7906C16 50.5155 16.9274 53.1593 18.6297 55.2871L24 62H50L53.1121 41.771C53.6064 38.5587 51.4529 35.5369 48.2552 34.9555Z" stroke="currentColor" stroke-width="2" stroke-miterlimit="10" stroke-linecap="square"/>
<path d="M28 2V6" stroke="currentColor" stroke-width="2" stroke-miterlimit="10" stroke-linecap="square"/>
<path d="M40.7279 7.27209L37.8995 10.1005" stroke="currentColor" stroke-width="2" stroke-miterlimit="10" stroke-linecap="square"/>
<path d="M46 20H42" stroke="currentColor" stroke-width="2" stroke-miterlimit="10" stroke-linecap="square"/>
<path d="M15.2721 7.27209L18.1005 10.1005" stroke="currentColor" stroke-width="2" stroke-miterlimit="10" stroke-linecap="square"/>
<path d="M10 20H14" stroke="currentColor" stroke-width="2" stroke-miterlimit="10" stroke-linecap="square"/>
</svg>
