<svg width="64" height="64" viewBox="0 0 64 64" fill="none" xmlns="http://www.w3.org/2000/svg">
<path d="M52 21.09C52 32.872 32 53.926 32 53.926C32 53.926 12 32.874 12 21.09C12 9.01 22.336 2 32 2C41.664 2 52 9.01 52 21.09Z" stroke="currentColor" stroke-width="2" stroke-miterlimit="10" stroke-linecap="square"/>
<path d="M32 28C35.3137 28 38 25.3137 38 22C38 18.6863 35.3137 16 32 16C28.6863 16 26 18.6863 26 22C26 25.3137 28.6863 28 32 28Z" stroke="currentColor" stroke-width="2" stroke-miterlimit="10" stroke-linecap="square"/>
<path d="M16 47.434C8.746 48.88 4 51.282 4 54C4 58.418 16.536 62 32 62C47.464 62 60 58.418 60 54C60 51.282 55.254 48.88 48 47.434" stroke="currentColor" stroke-width="2" stroke-miterlimit="10" stroke-linecap="square"/>
</svg>
