<svg width="64" height="64" viewBox="0 0 64 64" fill="none" xmlns="http://www.w3.org/2000/svg">
<path d="M7 62C9.76142 62 12 59.7614 12 57C12 54.2386 9.76142 52 7 52C4.23858 52 2 54.2386 2 57C2 59.7614 4.23858 62 7 62Z" stroke="currentColor" stroke-width="2" stroke-miterlimit="10" stroke-linecap="square"/>
<path d="M32 62C34.7614 62 37 59.7614 37 57C37 54.2386 34.7614 52 32 52C29.2386 52 27 54.2386 27 57C27 59.7614 29.2386 62 32 62Z" stroke="currentColor" stroke-width="2" stroke-miterlimit="10" stroke-linecap="square"/>
<path d="M57 62C59.7614 62 62 59.7614 62 57C62 54.2386 59.7614 52 57 52C54.2386 52 52 54.2386 52 57C52 59.7614 54.2386 62 57 62Z" stroke="currentColor" stroke-width="2" stroke-miterlimit="10" stroke-linecap="square"/>
<path d="M32 52V38" stroke="currentColor" stroke-width="2" stroke-miterlimit="10"/>
<path d="M53.466 53.466L48 48V38" stroke="currentColor" stroke-width="2" stroke-miterlimit="10"/>
<path d="M10.536 53.464L16 48V38" stroke="currentColor" stroke-width="2" stroke-miterlimit="10"/>
<path d="M50 14C49.654 14 49.312 14.024 48.972 14.052C47.743 10.5306 45.449 7.47867 42.4081 5.31916C39.3671 3.15965 35.7297 1.99951 32 1.99951C28.2703 1.99951 24.6329 3.15965 21.5919 5.31916C18.551 7.47867 16.257 10.5306 15.028 14.052C14.688 14.024 14.346 14 14 14C10.8174 14 7.76516 15.2643 5.51472 17.5147C3.26428 19.7652 2 22.8174 2 26C2 29.1826 3.26428 32.2349 5.51472 34.4853C7.76516 36.7357 10.8174 38 14 38H50C53.1826 38 56.2348 36.7357 58.4853 34.4853C60.7357 32.2349 62 29.1826 62 26C62 22.8174 60.7357 19.7652 58.4853 17.5147C56.2348 15.2643 53.1826 14 50 14Z" stroke="currentColor" stroke-width="2" stroke-miterlimit="10" stroke-linecap="square"/>
</svg>
