<svg width="64" height="64" viewBox="0 0 64 64" fill="none" xmlns="http://www.w3.org/2000/svg">
<path d="M32 2V62" stroke="currentColor" stroke-width="2" stroke-miterlimit="10"/>
<path d="M2 32H62" stroke="currentColor" stroke-width="2" stroke-miterlimit="10"/>
<path d="M32 62C41.4673 62 49.142 48.5685 49.142 32C49.142 15.4315 41.4673 2 32 2C22.5327 2 14.858 15.4315 14.858 32C14.858 48.5685 22.5327 62 32 62Z" stroke="currentColor" stroke-width="2" stroke-miterlimit="10" stroke-linecap="square"/>
<path d="M6.62 16H57.38" stroke="currentColor" stroke-width="2" stroke-miterlimit="10"/>
<path d="M6.62 48H57.38" stroke="currentColor" stroke-width="2" stroke-miterlimit="10"/>
<path d="M32 62C48.5685 62 62 48.5685 62 32C62 15.4315 48.5685 2 32 2C15.4315 2 2 15.4315 2 32C2 48.5685 15.4315 62 32 62Z" stroke="currentColor" stroke-width="2" stroke-miterlimit="10" stroke-linecap="square"/>
</svg>
