<svg width="64" height="64" viewBox="0 0 64 64" fill="none" xmlns="http://www.w3.org/2000/svg">
<path d="M34 16V6C34 4.93913 33.5786 3.92172 32.8284 3.17157C32.0783 2.42143 31.0609 2 30 2H6C4.93913 2 3.92172 2.42143 3.17157 3.17157C2.42143 3.92172 2 4.93913 2 6V28C2 29.0609 2.42143 30.0783 3.17157 30.8284C3.92172 31.5786 4.93913 32 6 32H8V37.334L16 32H22" stroke="currentColor" stroke-width="2" stroke-miterlimit="10" stroke-linecap="square"/>
<path d="M30 50V28C30 26.9391 30.4214 25.9217 31.1716 25.1716C31.9217 24.4214 32.9391 24 34 24H58C59.0609 24 60.0783 24.4214 60.8284 25.1716C61.5786 25.9217 62 26.9391 62 28V50C62 51.0609 61.5786 52.0783 60.8284 52.8284C60.0783 53.5786 59.0609 54 58 54H56V59.334L48 54H34C32.9391 54 31.9217 53.5786 31.1716 52.8284C30.4214 52.0783 30 51.0609 30 50Z" stroke="currentColor" stroke-width="2" stroke-miterlimit="10" stroke-linecap="square"/>
<path d="M49.65 48L48.8 44.8H43.24L42.374 48H37.288L42.876 30.8H49.052L54.712 48H49.65ZM47.85 41L47.112 38.188C46.94 37.5627 46.7307 36.7541 46.484 35.7621C46.2373 34.7701 46.076 34.0567 46 33.6221C45.9293 34.0221 45.7907 34.678 45.584 35.59C45.3773 36.502 44.916 38.3054 44.2 41H47.85Z" fill="currentColor"/>
<path d="M27.37 12.906C26.49 12.826 25.71 12.786 24.532 12.786C24.2489 14.1258 23.7916 15.4228 23.172 16.644C22.5797 17.817 21.8338 18.9059 20.954 19.882C23.0645 21.1172 25.3915 21.938 27.81 22.3C26.9538 23.4098 26.285 24.6522 25.83 25.978C23.1014 25.2113 20.5251 23.9806 18.214 22.34C15.7936 24.0151 13.102 25.2594 10.258 26.018C9.82995 24.7358 9.18083 23.5384 8.34 22.48C10.8401 22.0287 13.2418 21.1426 15.436 19.862C14.4225 18.7575 13.556 17.5266 12.858 16.2C12.2792 15.1123 11.8167 13.9666 11.478 12.782C10.298 12.782 9.62 12.822 8.62 12.902V9.28799C9.58241 9.39154 10.5501 9.43828 11.518 9.42799H15.936V8.22799C15.9387 7.81229 15.8985 7.39742 15.816 6.98999H19.834C19.7535 7.39098 19.7133 7.79901 19.714 8.20799V9.42799H24.47C25.4386 9.43881 26.407 9.39206 27.37 9.28799V12.906ZM15.316 12.786C15.8334 14.606 16.7956 16.2687 18.116 17.624C19.3316 16.2395 20.1899 14.5785 20.616 12.786H15.316Z" fill="currentColor"/>
</svg>
