<svg width="64" height="64" viewBox="0 0 64 64" fill="none" xmlns="http://www.w3.org/2000/svg">
<path d="M32 13.734C32 8.21 33.124 4.334 38 2" stroke="currentColor" stroke-width="2" stroke-miterlimit="10"/>
<path d="M55.058 14.9499C53.2637 12.7729 50.8367 11.2079 48.1133 10.4715C45.3899 9.73508 42.505 9.86385 39.858 10.8399L32 13.7339L24.146 10.8399C21.4991 9.86385 18.6141 9.73508 15.8907 10.4715C13.1673 11.2079 10.7404 12.7729 8.94602 14.9499C7.78268 16.3729 6.93371 18.026 6.45491 19.8006C5.97612 21.5751 5.87834 23.4309 6.16802 25.2459L10.548 47.7039C10.8085 49.205 11.408 50.6269 12.3007 51.8614C13.1935 53.0959 14.356 54.1105 15.7 54.8281C17.0439 55.5456 18.5338 55.9472 20.0563 56.0023C21.5788 56.0574 23.0938 55.7645 24.486 55.1459L32 51.8679L39.514 55.1459C40.9063 55.7645 42.4213 56.0574 43.9438 56.0023C45.4663 55.9472 46.9562 55.5456 48.3001 54.8281C49.644 54.1105 50.8065 53.0959 51.6993 51.8614C52.5921 50.6269 53.1915 49.205 53.452 47.7039L57.836 25.2459C58.1257 23.4309 58.0279 21.5751 57.5491 19.8006C57.0703 18.026 56.2214 16.3729 55.058 14.9499Z" stroke="currentColor" stroke-width="2" stroke-miterlimit="10" stroke-linecap="square"/>
</svg>
