<svg width="64" height="64" viewBox="0 0 64 64" fill="none" xmlns="http://www.w3.org/2000/svg">
<path d="M30 14C33.3137 14 36 11.3137 36 8C36 4.68629 33.3137 2 30 2C26.6863 2 24 4.68629 24 8C24 11.3137 26.6863 14 30 14Z" stroke="currentColor" stroke-width="2" stroke-miterlimit="10" stroke-linecap="square"/>
<path d="M52 62C54.2091 62 56 60.2091 56 58C56 55.7909 54.2091 54 52 54C49.7909 54 48 55.7909 48 58C48 60.2091 49.7909 62 52 62Z" stroke="currentColor" stroke-width="2" stroke-miterlimit="10"/>
<path d="M37.2 32L36.18 21.8C36.1303 21.305 35.8978 20.8462 35.528 20.5134C35.1581 20.1806 34.6775 19.9975 34.18 20H26.324C26.1092 19.9999 25.8958 20.0343 25.692 20.102L14.704 23.764C14.2506 23.9146 13.8661 24.2225 13.62 24.632L8 34" stroke="currentColor" stroke-width="2" stroke-miterlimit="10" stroke-linecap="square"/>
<path d="M19.53 35.6C17.3274 36.7478 15.4697 38.461 14.1477 40.5638C12.8258 42.6666 12.087 45.0832 12.0072 47.5657C11.9275 50.0482 12.5096 52.5072 13.6939 54.6905C14.8782 56.8738 16.622 58.7027 18.7464 59.9896C20.8708 61.2765 23.2993 61.975 25.7828 62.0136C28.2663 62.0521 30.7154 61.4292 32.8787 60.2089C35.042 58.9885 36.8417 57.2146 38.0931 55.0691C39.3446 52.9236 40.0027 50.4838 40 48" stroke="currentColor" stroke-width="2" stroke-miterlimit="10" stroke-linecap="square"/>
<path d="M52 48V42C52 41.4696 51.7893 40.9609 51.4142 40.5858C51.0391 40.2107 50.5304 40 50 40H33.43C31.9426 40 30.5081 39.4475 29.405 38.4497C28.3019 37.4519 27.6087 36.08 27.46 34.6L26 20.042" stroke="currentColor" stroke-width="2" stroke-miterlimit="10"/>
</svg>
