<svg width="64" height="64" viewBox="0 0 64 64" fill="none" xmlns="http://www.w3.org/2000/svg">
<path d="M10 32H12C16.536 32 21.652 34.494 24 38H32C36.014 38 40 41.986 40 46H22" stroke="currentColor" stroke-width="2" stroke-miterlimit="10"/>
<path d="M38.722 42H52C59.25 42 60 46 60 46L31.36 57.632C29.082 58.544 26.522 58.438 24.326 57.34L10 50.064" stroke="currentColor" stroke-width="2" stroke-miterlimit="10"/>
<path d="M48 32C52.4183 32 56 28.4183 56 24C56 19.5817 52.4183 16 48 16C43.5817 16 40 19.5817 40 24C40 28.4183 43.5817 32 48 32Z" stroke="currentColor" stroke-width="2" stroke-miterlimit="10" stroke-linecap="square"/>
<path d="M10 28H2V54H10V28Z" stroke="currentColor" stroke-width="2" stroke-miterlimit="10" stroke-linecap="square"/>
<path d="M24 20C28.4183 20 32 16.4183 32 12C32 7.58172 28.4183 4 24 4C19.5817 4 16 7.58172 16 12C16 16.4183 19.5817 20 24 20Z" stroke="currentColor" stroke-width="2" stroke-miterlimit="10" stroke-linecap="square"/>
</svg>
