<svg width="64" height="64" viewBox="0 0 64 64" fill="none" xmlns="http://www.w3.org/2000/svg">
<path d="M37.452 47.5941L46.652 57.5321C49.62 60.7361 54.656 60.8341 57.744 57.7461C60.832 54.6581 60.736 49.6221 57.53 46.6541L49.942 39.6281" stroke="currentColor" stroke-width="2" stroke-miterlimit="10" stroke-linecap="square"/>
<path d="M27.334 27.334L20 20" stroke="currentColor" stroke-width="2" stroke-miterlimit="10"/>
<path d="M4 8L8 4L20 10V20H10L4 8Z" stroke="currentColor" stroke-width="2" stroke-miterlimit="10" stroke-linecap="square"/>
<path d="M41.634 31.302L17.348 57.532C14.38 60.736 9.34399 60.834 6.25599 57.746C3.16799 54.658 3.26399 49.622 6.46999 46.654L32.7 22.368" stroke="currentColor" stroke-width="2" stroke-miterlimit="10"/>
<path d="M51 21L43 13L51.048 4.952C49.48 4.346 47.782 4 46 4C38.268 4 32 10.268 32 18C32 25.732 38.268 32 46 32C53.732 32 60 25.732 60 18C60 16.218 59.654 14.52 59.048 12.952L51 21Z" stroke="currentColor" stroke-width="2" stroke-miterlimit="10" stroke-linecap="square"/>
</svg>
