<svg width="64" height="64" viewBox="0 0 64 64" fill="none" xmlns="http://www.w3.org/2000/svg">
<path d="M59.7 23.9999C59.8499 23.1601 59.9275 22.309 59.932 21.4559C59.9899 18.1578 58.9733 14.9303 57.0357 12.2607C55.0981 9.59112 52.3446 7.62429 49.1909 6.65714C46.0372 5.68999 42.6545 5.77501 39.5534 6.89936C36.4523 8.02372 33.8011 10.1264 32 12.8899C30.608 10.7992 28.7276 9.07915 26.5213 7.87863C24.3151 6.6781 21.8495 6.03328 19.338 5.99995C15.2649 6.02903 11.3696 7.67269 8.50688 10.5703C5.64415 13.4679 4.04777 17.3828 4.068 21.4559C4.07251 22.309 4.15013 23.1601 4.3 23.9999" stroke="currentColor" stroke-width="2" stroke-miterlimit="10" stroke-linecap="square"/>
<path d="M12.566 40C18.3763 47.2845 24.8853 53.983 32 60C39.1153 53.9836 45.6243 47.285 51.434 40" stroke="currentColor" stroke-width="2" stroke-miterlimit="10" stroke-linecap="square"/>
<path d="M2 32H20L26 22L38 40L44 32H62" stroke="currentColor" stroke-width="2" stroke-miterlimit="10" stroke-linecap="square"/>
</svg>
