<svg width="64" height="64" viewBox="0 0 64 64" fill="none" xmlns="http://www.w3.org/2000/svg">
<path d="M32 40C36.4183 40 40 36.4183 40 32C40 27.5817 36.4183 24 32 24C27.5817 24 24 27.5817 24 32C24 36.4183 27.5817 40 32 40Z" stroke="currentColor" stroke-width="2" stroke-miterlimit="10" stroke-linecap="square"/>
<path d="M54 32C53.9994 30.5392 53.854 29.0821 53.566 27.65L60.98 22.2L54.98 11.8L46.526 15.508C44.3378 13.5741 41.7852 12.0972 39.018 11.164L38 2H26L24.982 11.164C22.2148 12.0972 19.6622 13.5741 17.474 15.508L9.02 11.8L3.02 22.2L10.434 27.654C9.85535 30.5251 9.85535 33.4829 10.434 36.354L3.02 41.8L9.02 52.2L17.474 48.496C19.6622 50.4299 22.2148 51.9068 24.982 52.84L26 62H38L39.018 52.836C41.7852 51.9028 44.3378 50.4259 46.526 48.492L54.98 52.2L60.98 41.8L53.566 36.346C53.8537 34.9152 53.9991 33.4594 54 32Z" stroke="currentColor" stroke-width="2" stroke-miterlimit="10" stroke-linecap="square"/>
</svg>
