<svg width="64" height="64" viewBox="0 0 64 64" fill="none" xmlns="http://www.w3.org/2000/svg">
<path d="M18 16V24L26 32V60" stroke="currentColor" stroke-width="2" stroke-miterlimit="10" stroke-linecap="square"/>
<path d="M8 40V48L14 54V60" stroke="currentColor" stroke-width="2" stroke-miterlimit="10" stroke-linecap="square"/>
<path d="M56 40V48L50 54V60" stroke="currentColor" stroke-width="2" stroke-miterlimit="10" stroke-linecap="square"/>
<path d="M46 16V24L38 32V60" stroke="currentColor" stroke-width="2" stroke-miterlimit="10" stroke-linecap="square"/>
<path d="M18 16C21.3137 16 24 13.3137 24 10C24 6.68629 21.3137 4 18 4C14.6863 4 12 6.68629 12 10C12 13.3137 14.6863 16 18 16Z" stroke="currentColor" stroke-width="2" stroke-miterlimit="10" stroke-linecap="square"/>
<path d="M8 40C11.3137 40 14 37.3137 14 34C14 30.6863 11.3137 28 8 28C4.68629 28 2 30.6863 2 34C2 37.3137 4.68629 40 8 40Z" stroke="currentColor" stroke-width="2" stroke-miterlimit="10" stroke-linecap="square"/>
<path d="M56 40C59.3137 40 62 37.3137 62 34C62 30.6863 59.3137 28 56 28C52.6863 28 50 30.6863 50 34C50 37.3137 52.6863 40 56 40Z" stroke="currentColor" stroke-width="2" stroke-miterlimit="10" stroke-linecap="square"/>
<path d="M46 16C49.3137 16 52 13.3137 52 10C52 6.68629 49.3137 4 46 4C42.6863 4 40 6.68629 40 10C40 13.3137 42.6863 16 46 16Z" stroke="currentColor" stroke-width="2" stroke-miterlimit="10" stroke-linecap="square"/>
</svg>
