<svg width="64" height="64" viewBox="0 0 64 64" fill="none" xmlns="http://www.w3.org/2000/svg">
<path d="M4 60L12.002 51.998" stroke="currentColor" stroke-width="2" stroke-miterlimit="10" stroke-linecap="square"/>
<path d="M28 28L22 34" stroke="currentColor" stroke-width="2" stroke-miterlimit="10" stroke-linecap="square"/>
<path d="M36 36L30 42" stroke="currentColor" stroke-width="2" stroke-miterlimit="10" stroke-linecap="square"/>
<path d="M16.338 28.338L12 32.672C9.43698 35.2351 7.99707 38.7113 7.99707 42.336C7.99707 45.9607 9.43698 49.437 12 52C14.5631 54.5631 18.0393 56.003 21.664 56.003C25.2887 56.003 28.765 54.5631 31.328 52L35.662 47.664L16.338 28.338Z" stroke="currentColor" stroke-width="2" stroke-miterlimit="10" stroke-linecap="square"/>
<path d="M60 4L51.998 12.002" stroke="currentColor" stroke-width="2" stroke-miterlimit="10" stroke-linecap="square"/>
<path d="M47.662 35.662L52 31.328C54.5631 28.765 56.003 25.2887 56.003 21.664C56.003 18.0393 54.5631 14.5631 52 12C49.437 9.43698 45.9607 7.99707 42.336 7.99707C38.7113 7.99707 35.2351 9.43698 32.672 12L28.338 16.338L47.662 35.662Z" stroke="currentColor" stroke-width="2" stroke-miterlimit="10" stroke-linecap="square"/>
</svg>
