<svg width="64" height="64" viewBox="0 0 64 64" fill="none" xmlns="http://www.w3.org/2000/svg">
<path d="M41.386 38.586L36.822 44.292C29.7534 40.1374 23.8627 34.2467 19.708 27.178L25.414 22.614C26.0824 22.0786 26.5548 21.3369 26.7574 20.5048C26.96 19.6726 26.8815 18.7968 26.534 18.014L21.334 6.30403C20.9611 5.46396 20.302 4.78364 19.4742 4.38437C18.6463 3.9851 17.7036 3.89283 16.814 4.12403L6.91402 6.69203C5.99008 6.93325 5.18676 7.50506 4.65631 8.29908C4.12586 9.0931 3.90515 10.0541 4.03602 11C5.77331 23.3716 11.4911 34.8413 20.3249 43.6751C29.1588 52.509 40.6284 58.2267 53 59.964C53.9456 60.0944 54.9061 59.8734 55.6997 59.343C56.4933 58.8126 57.0648 58.0096 57.306 57.086L59.874 47.186C60.1043 46.2973 60.0118 45.3557 59.613 44.5287C59.2141 43.7018 58.5349 43.0431 57.696 42.67L45.986 37.47C45.2036 37.1221 44.3281 37.0429 43.496 37.2448C42.6639 37.4467 41.922 37.9183 41.386 38.586Z" stroke="currentColor" stroke-width="2" stroke-miterlimit="10" stroke-linecap="square"/>
</svg>
