<svg width="64" height="64" viewBox="0 0 64 64" fill="none" xmlns="http://www.w3.org/2000/svg">
<path d="M13 60C15.7614 60 18 57.7614 18 55C18 52.2386 15.7614 50 13 50C10.2386 50 8 52.2386 8 55C8 57.7614 10.2386 60 13 60Z" stroke="currentColor" stroke-width="2" stroke-miterlimit="10" stroke-linecap="square"/>
<path d="M51 60C53.7614 60 56 57.7614 56 55C56 52.2386 53.7614 50 51 50C48.2386 50 46 52.2386 46 55C46 57.7614 48.2386 60 51 60Z" stroke="currentColor" stroke-width="2" stroke-miterlimit="10" stroke-linecap="square"/>
<path d="M56 42H12.242C9.726 42 8.328 39.09 9.9 37.126L14 32L10.368 6.576C10.156 5.098 8.892 4 7.398 4H4" stroke="currentColor" stroke-width="2" stroke-miterlimit="10" stroke-linecap="square"/>
<path d="M11.142 12H56L51.282 27.724C50.52 30.262 48.184 32 45.536 32H14" stroke="currentColor" stroke-width="2" stroke-miterlimit="10"/>
</svg>
