<svg width="64" height="64" viewBox="0 0 64 64" fill="none" xmlns="http://www.w3.org/2000/svg">
<path d="M45.568 51.126C45.568 51.126 40.774 58.534 32.956 59.902C26.95 60.954 20 53.244 20 53.244C20 53.244 24.684 48.01 30.69 46.958C37.744 45.724 45.568 51.126 45.568 51.126Z" stroke="currentColor" stroke-width="2" stroke-miterlimit="10" stroke-linecap="square"/>
<path d="M4 35.164C4 35.164 9.442 30.634 15.758 31.452C20.61 32.08 24.094 39.646 24.094 39.646C24.094 39.646 19.256 42.538 14.402 41.908C8.704 41.172 4 35.164 4 35.164Z" stroke="currentColor" stroke-width="2" stroke-miterlimit="10" stroke-linecap="square"/>
<path d="M30.688 30C30.688 30 25.492 24.35 26.04 17.466C26.462 12.178 34.466 8.00201 34.466 8.00201C34.466 8.00201 37.856 13.086 37.434 18.374C36.942 24.586 30.688 30 30.688 30Z" stroke="currentColor" stroke-width="2" stroke-miterlimit="10" stroke-linecap="square"/>
<path d="M46.504 27.512C46.504 27.512 41.97 35.024 44.152 42.61C45.828 48.438 55.746 51.294 55.746 51.294C55.746 51.294 58.386 44.826 56.71 39C54.74 32.154 46.504 27.512 46.504 27.512Z" stroke="currentColor" stroke-width="2" stroke-miterlimit="10" stroke-linecap="square"/>
<path d="M60 52C34 52 16 32 16 6" stroke="currentColor" stroke-width="2" stroke-miterlimit="10" stroke-linecap="square"/>
</svg>
