<svg width="64" height="64" viewBox="0 0 64 64" fill="none" xmlns="http://www.w3.org/2000/svg">
<path d="M4 32H12V35C12 36.3261 12.5268 37.5979 13.4645 38.5355C14.4021 39.4732 15.6739 40 17 40C18.3261 40 19.5979 39.4732 20.5355 38.5355C21.4732 37.5979 22 36.3261 22 35V32H42V29C42 27.6739 42.5268 26.4021 43.4645 25.4645C44.4021 24.5268 45.6739 24 47 24C48.3261 24 49.5979 24.5268 50.5355 25.4645C51.4732 26.4021 52 27.6739 52 29V32H60" stroke="currentColor" stroke-width="2" stroke-miterlimit="10" stroke-linecap="square"/>
<path d="M32 60V52H35C36.3261 52 37.5979 51.4732 38.5355 50.5355C39.4732 49.5979 40 48.3261 40 47C40 45.6739 39.4732 44.4021 38.5355 43.4645C37.5979 42.5268 36.3261 42 35 42H32V22H29C27.6739 22 26.4021 21.4732 25.4645 20.5355C24.5268 19.5979 24 18.3261 24 17C24 15.6739 24.5268 14.4021 25.4645 13.4645C26.4021 12.5268 27.6739 12 29 12H32V4" stroke="currentColor" stroke-width="2" stroke-miterlimit="10" stroke-linecap="square"/>
<path d="M60 4H4V60H60V4Z" stroke="currentColor" stroke-width="2" stroke-miterlimit="10" stroke-linecap="square"/>
</svg>
