<svg width="64" height="64" viewBox="0 0 64 64" fill="none" xmlns="http://www.w3.org/2000/svg">
<path d="M22 8V2" stroke="currentColor" stroke-width="2" stroke-miterlimit="10" stroke-linecap="square"/>
<path d="M42 8V2" stroke="currentColor" stroke-width="2" stroke-miterlimit="10" stroke-linecap="square"/>
<path d="M32 8V2" stroke="currentColor" stroke-width="2" stroke-miterlimit="10" stroke-linecap="square"/>
<path d="M8 42H2" stroke="currentColor" stroke-width="2" stroke-miterlimit="10" stroke-linecap="square"/>
<path d="M8 22H2" stroke="currentColor" stroke-width="2" stroke-miterlimit="10" stroke-linecap="square"/>
<path d="M8 32H2" stroke="currentColor" stroke-width="2" stroke-miterlimit="10" stroke-linecap="square"/>
<path d="M62 42H56" stroke="currentColor" stroke-width="2" stroke-miterlimit="10" stroke-linecap="square"/>
<path d="M62 22H56" stroke="currentColor" stroke-width="2" stroke-miterlimit="10" stroke-linecap="square"/>
<path d="M62 32H56" stroke="currentColor" stroke-width="2" stroke-miterlimit="10" stroke-linecap="square"/>
<path d="M22 62V56" stroke="currentColor" stroke-width="2" stroke-miterlimit="10" stroke-linecap="square"/>
<path d="M42 62V56" stroke="currentColor" stroke-width="2" stroke-miterlimit="10" stroke-linecap="square"/>
<path d="M32 62V56" stroke="currentColor" stroke-width="2" stroke-miterlimit="10" stroke-linecap="square"/>
<path d="M52 8H12C9.79086 8 8 9.79086 8 12V52C8 54.2091 9.79086 56 12 56H52C54.2091 56 56 54.2091 56 52V12C56 9.79086 54.2091 8 52 8Z" stroke="currentColor" stroke-width="2" stroke-miterlimit="10" stroke-linecap="square"/>
<path d="M46 18H18V46H46V18Z" stroke="currentColor" stroke-width="2" stroke-miterlimit="10" stroke-linecap="square"/>
</svg>
