<svg width="64" height="64" viewBox="0 0 64 64" fill="none" xmlns="http://www.w3.org/2000/svg">
<path d="M32 14C35.3137 14 38 11.3137 38 8C38 4.68629 35.3137 2 32 2C28.6863 2 26 4.68629 26 8C26 11.3137 28.6863 14 32 14Z" stroke="currentColor" stroke-width="2" stroke-miterlimit="10" stroke-linecap="square"/>
<path d="M8.61798 54.5C11.9317 54.5 14.618 51.8137 14.618 48.5C14.618 45.1863 11.9317 42.5 8.61798 42.5C5.30427 42.5 2.61798 45.1863 2.61798 48.5C2.61798 51.8137 5.30427 54.5 8.61798 54.5Z" stroke="currentColor" stroke-width="2" stroke-miterlimit="10" stroke-linecap="square"/>
<path d="M55.382 54.5C58.6957 54.5 61.382 51.8137 61.382 48.5C61.382 45.1863 58.6957 42.5 55.382 42.5C52.0682 42.5 49.382 45.1863 49.382 48.5C49.382 51.8137 52.0682 54.5 55.382 54.5Z" stroke="currentColor" stroke-width="2" stroke-miterlimit="10" stroke-linecap="square"/>
<path d="M18.502 11.658C13.1967 14.7165 9.08993 19.4893 6.85707 25.1916C4.62422 30.8938 4.39814 37.1861 6.21601 43.034" stroke="currentColor" stroke-width="2" stroke-miterlimit="10" stroke-linecap="square"/>
<path d="M51.82 53.29C47.6791 57.8023 42.1221 60.766 36.0681 61.6912C30.0141 62.6164 23.8256 61.4476 18.526 58.378" stroke="currentColor" stroke-width="2" stroke-miterlimit="10" stroke-linecap="square"/>
<path d="M59 35C58.9968 28.8724 56.9093 22.9282 53.0807 18.144C49.252 13.3598 43.9099 10.0202 37.932 8.67395" stroke="currentColor" stroke-width="2" stroke-miterlimit="10" stroke-linecap="square"/>
</svg>
