<svg width="64" height="64" viewBox="0 0 64 64" fill="none" xmlns="http://www.w3.org/2000/svg">
<path d="M26 59.444C26.7764 60.2522 27.7081 60.8952 28.7391 61.3344C29.7701 61.7737 30.8793 62.0001 32 62.0001C33.1207 62.0001 34.2299 61.7737 35.2609 61.3344C36.2919 60.8952 37.2236 60.2522 38 59.444" stroke="currentColor" stroke-width="2" stroke-miterlimit="10" stroke-linecap="square"/>
<path d="M52 30V21.8C51.8415 16.5645 49.6774 11.59 45.9551 7.90491C42.2328 4.21981 37.2368 2.10584 32 2C26.7434 2.151 21.7436 4.30661 18.0251 8.02511C14.3066 11.7436 12.151 16.7434 12 22V30C12 39 4.79999 40.6 4.79999 45.6C4.79999 50.2 15.4 53.8 32 53.8C48.6 53.8 59.2 50.2 59.2 45.6C59.2 40.6 52 39 52 30Z" stroke="currentColor" stroke-width="2" stroke-miterlimit="10" stroke-linecap="square"/>
</svg>
