<svg width="64" height="64" viewBox="0 0 64 64" fill="none" xmlns="http://www.w3.org/2000/svg">
<path d="M39.098 47.172L29.248 44.356C28.8764 44.2501 28.5434 44.0389 28.2893 43.7479C28.0352 43.4569 27.8708 43.0984 27.816 42.716L26.986 36.906C29.0769 35.9509 30.8495 34.4153 32.0929 32.4819C33.3363 30.5485 33.9983 28.2987 34 26V20.504C34.0495 17.3218 32.8669 14.2437 30.6994 11.9133C28.5319 9.58294 25.5474 8.18075 22.37 7.99997C20.7633 7.9504 19.163 8.22416 17.6641 8.80499C16.1652 9.38581 14.7983 10.2619 13.6445 11.3811C12.4907 12.5004 11.5736 13.8401 10.9475 15.3207C10.3214 16.8012 9.99924 18.3925 10 20V26C10.0017 28.2987 10.6637 30.5485 11.9071 32.4819C13.1505 34.4153 14.9231 35.9509 17.014 36.906L16.184 42.716C16.1292 43.0984 15.9648 43.4569 15.7107 43.7479C15.4566 44.0389 15.1236 44.2501 14.752 44.356L4.902 47.172C4.06606 47.4106 3.33061 47.9151 2.80699 48.609C2.28337 49.303 2.00008 50.1486 2 51.018V58H42V51.018C41.9999 50.1486 41.7166 49.303 41.193 48.609C40.6694 47.9151 39.9339 47.4106 39.098 47.172Z" stroke="currentColor" stroke-width="2" stroke-miterlimit="10" stroke-linecap="square"/>
<path d="M50 58H62V47.124C62.0003 46.2316 61.7022 45.3648 61.1532 44.6614C60.6042 43.958 59.8357 43.4584 58.97 43.242L47.304 40.326C46.9184 40.2294 46.5703 40.0201 46.3042 39.7247C46.0381 39.4294 45.8661 39.0615 45.81 38.668L44.986 32.906C47.0769 31.9509 48.8495 30.4153 50.0929 28.4819C51.3363 26.5485 51.9983 24.2987 52 22V16.504C52.0495 13.3218 50.8669 10.2437 48.6994 7.91332C46.5319 5.58294 43.5474 4.18076 40.37 3.99997C38.1389 3.9281 35.9323 4.48235 34 5.59997" stroke="currentColor" stroke-width="2" stroke-miterlimit="10" stroke-linecap="square"/>
</svg>
