<svg width="64" height="64" viewBox="0 0 64 64" fill="none" xmlns="http://www.w3.org/2000/svg">
<path d="M41.464 6.874L34.924 5.924L32 0L29.076 5.924L22.536 6.874L27.268 11.488L26.152 18L32 14.926L37.848 18L36.732 11.488L41.464 6.874Z" fill="currentColor"/>
<path d="M21.464 48.874L14.924 47.924L12 42L9.076 47.924L2.536 48.874L7.268 53.488L6.152 60L12 56.926L17.848 60L16.732 53.488L21.464 48.874Z" fill="currentColor"/>
<path d="M61.464 48.874L54.924 47.924L52 42L49.076 47.924L42.536 48.874L47.268 53.488L46.152 60L52 56.926L57.848 60L56.732 53.488L61.464 48.874Z" fill="currentColor"/>
<path d="M18 32C18 32 32 38.666 32 62" stroke="currentColor" stroke-width="2" stroke-miterlimit="10" stroke-linecap="square"/>
<path d="M32 22V36" stroke="currentColor" stroke-width="2" stroke-miterlimit="10" stroke-linecap="square"/>
<path d="M46 32C46 32 39.238 34.92 35.114 44.532" stroke="currentColor" stroke-width="2" stroke-miterlimit="10" stroke-linecap="square"/>
<path d="M8 30C10.2091 30 12 28.2091 12 26C12 23.7909 10.2091 22 8 22C5.79086 22 4 23.7909 4 26C4 28.2091 5.79086 30 8 30Z" stroke="currentColor" stroke-width="2" stroke-miterlimit="10" stroke-linecap="square"/>
<path d="M56 30C58.2091 30 60 28.2091 60 26C60 23.7909 58.2091 22 56 22C53.7909 22 52 23.7909 52 26C52 28.2091 53.7909 30 56 30Z" stroke="currentColor" stroke-width="2" stroke-miterlimit="10" stroke-linecap="square"/>
</svg>
