<svg width="64" height="64" viewBox="0 0 64 64" fill="none" xmlns="http://www.w3.org/2000/svg">
<path d="M27.136 52C31.2619 54.6711 36.0854 56.0627 41 56C43.3127 55.9997 45.6156 55.7013 47.852 55.112L56 60V51.188C57.7946 49.9116 59.2698 48.2376 60.3106 46.2969C61.3514 44.3561 61.9296 42.2011 62 40C61.9936 37.904 61.4672 35.8424 60.468 34" stroke="currentColor" stroke-width="2" stroke-miterlimit="10" stroke-linecap="square"/>
<path d="M29 4C14.088 4 2 13.4 2 25C2.04987 27.4906 2.60776 29.9447 3.63948 32.2121C4.67119 34.4794 6.155 36.5123 8 38.186V52L21.626 45.186C24.0472 45.7242 26.5197 45.9971 29 46C43.912 46 56 36.6 56 25C56 13.4 43.912 4 29 4Z" stroke="currentColor" stroke-width="2" stroke-miterlimit="10" stroke-linecap="square"/>
</svg>
