<svg width="64" height="64" viewBox="0 0 64 64" fill="none" xmlns="http://www.w3.org/2000/svg">
<path d="M22 31.4C20.4014 31.3005 18.8 31.5426 17.3023 32.1102C15.8047 32.6778 14.445 33.5579 13.314 34.692L7.314 40.692C5.19234 42.8137 4.00041 45.6914 4.00041 48.692C4.00041 51.6925 5.19234 54.5702 7.314 56.692C9.43577 58.8136 12.3134 60.0056 15.314 60.0056C18.3146 60.0056 21.1922 58.8136 23.314 56.692L29.314 50.692C30.4477 49.5597 31.3272 48.1989 31.8938 46.7001C32.4604 45.2014 32.7012 43.5991 32.6 42" stroke="currentColor" stroke-width="2" stroke-miterlimit="10" stroke-linecap="square"/>
<path d="M31.4 22C31.3005 20.4014 31.5426 18.8 32.1102 17.3023C32.6778 15.8046 33.558 14.445 34.692 13.314L40.692 7.31395C42.8138 5.19229 45.6914 4.00037 48.692 4.00037C51.6926 4.00037 54.5702 5.19229 56.692 7.31395C58.8137 9.43572 60.0056 12.3134 60.0056 15.314C60.0056 18.3145 58.8137 21.1922 56.692 23.314L50.692 29.314C49.5598 30.4477 48.1989 31.3272 46.7002 31.8938C45.2014 32.4604 43.5991 32.7011 42 32.6" stroke="currentColor" stroke-width="2" stroke-miterlimit="10" stroke-linecap="square"/>
<path d="M20 44L44 20" stroke="currentColor" stroke-width="2" stroke-miterlimit="10" stroke-linecap="square"/>
</svg>
