<svg width="64" height="64" viewBox="0 0 64 64" fill="none" xmlns="http://www.w3.org/2000/svg">
<path d="M32 34C35.3137 34 38 31.3137 38 28C38 24.6863 35.3137 22 32 22C28.6863 22 26 24.6863 26 28C26 31.3137 28.6863 34 32 34Z" fill="currentColor"/>
<path d="M2.818 34.364C2.29058 33.6873 2.00283 32.8547 1.99994 31.9967C1.99704 31.1388 2.27916 30.3042 2.802 29.624C6.844 24.324 17.772 12 32 12C46.04 12 57.072 24.316 61.17 29.62C61.6997 30.3003 61.9873 31.1378 61.9873 32C61.9873 32.8622 61.6997 33.6997 61.17 34.38C57.072 39.684 46.04 52 32 52C17.96 52 6.906 39.656 2.818 34.364Z" stroke="currentColor" stroke-width="2" stroke-miterlimit="10" stroke-linecap="square"/>
<path d="M32 44C40.8366 44 48 36.8366 48 28C48 19.1634 40.8366 12 32 12C23.1634 12 16 19.1634 16 28C16 36.8366 23.1634 44 32 44Z" stroke="currentColor" stroke-width="2" stroke-miterlimit="10" stroke-linecap="square"/>
<path d="M32 34C35.3137 34 38 31.3137 38 28C38 24.6863 35.3137 22 32 22C28.6863 22 26 24.6863 26 28C26 31.3137 28.6863 34 32 34Z" stroke="currentColor" stroke-width="2" stroke-miterlimit="10" stroke-linecap="square"/>
</svg>
