<svg width="64" height="64" viewBox="0 0 64 64" fill="none" xmlns="http://www.w3.org/2000/svg">
<path d="M39 43L43.5 47.5C44.4277 48.4286 44.9488 49.6874 44.9488 51C44.9488 52.3126 44.4277 53.5714 43.5 54.5" stroke="currentColor" stroke-width="2" stroke-miterlimit="10" stroke-linecap="square"/>
<path d="M2 28V4H22.2C22.8019 4.00038 23.4031 4.03912 24 4.116" stroke="currentColor" stroke-width="2" stroke-miterlimit="10" stroke-linecap="square"/>
<path d="M7.50047 32.5L6.50062 33.4998C4.56753 35.4329 4.56753 38.5671 6.50062 40.5002C8.43372 42.4333 11.5679 42.4333 13.501 40.5002L14.5008 39.5003C16.4339 37.5672 16.4339 34.4331 14.5008 32.5C12.5677 30.5669 9.43357 30.5669 7.50047 32.5Z" stroke="currentColor" stroke-width="2" stroke-miterlimit="10" stroke-linecap="square"/>
<path d="M14.7743 39.2256L13.2243 40.7756C11.2912 42.7087 11.2913 45.8428 13.2243 47.7759C15.1574 49.709 18.2916 49.709 20.2247 47.7759L21.7747 46.226C23.7078 44.2929 23.7078 41.1587 21.7747 39.2256C19.8416 37.2925 16.7074 37.2925 14.7743 39.2256Z" stroke="currentColor" stroke-width="2" stroke-miterlimit="10" stroke-linecap="square"/>
<path d="M21.2295 46.7706L20.2296 47.7705C18.2965 49.7035 18.2965 52.8377 20.2296 54.7708C22.1627 56.7039 25.2969 56.7039 27.23 54.7708L28.2298 53.771C30.1629 51.8379 30.1629 48.7037 28.2298 46.7706C26.2967 44.8375 23.1626 44.8375 21.2295 46.7706Z" stroke="currentColor" stroke-width="2" stroke-miterlimit="10" stroke-linecap="square"/>
<path d="M28.3069 53.694L27.2674 54.7335C25.6108 56.3901 25.6108 59.076 27.2674 60.7326L27.2688 60.734C28.9254 62.3906 31.6113 62.3906 33.2679 60.734L34.3074 59.6945C35.964 58.0379 35.964 55.3521 34.3074 53.6955L34.306 53.694C32.6494 52.0374 29.9635 52.0374 28.3069 53.694Z" stroke="currentColor" stroke-width="2" stroke-miterlimit="10" stroke-linecap="square"/>
<path d="M46 36L52.05 42.05C52.5098 42.5095 52.8746 43.0551 53.1235 43.6557C53.3724 44.2562 53.5005 44.8999 53.5005 45.55C53.5005 46.2001 53.3724 46.8438 53.1235 47.4443C52.8746 48.0449 52.5098 48.5905 52.05 49.05C51.5905 49.5098 51.0449 49.8746 50.4443 50.1235C49.8438 50.3724 49.2001 50.5005 48.55 50.5005C47.8999 50.5005 47.2562 50.3724 46.6557 50.1235C46.0551 49.8746 45.5095 49.5098 45.05 49.05" stroke="currentColor" stroke-width="2" stroke-miterlimit="10" stroke-linecap="square"/>
<path d="M51.5 41.5C52.4286 42.4277 53.6874 42.9488 55 42.9488C56.3126 42.9488 57.5714 42.4277 58.5 41.5C59.4277 40.5714 59.9488 39.3126 59.9488 38C59.9488 36.6874 59.4277 35.4286 58.5 34.5L40 16" stroke="currentColor" stroke-width="2" stroke-miterlimit="10"/>
<path d="M40 16L26.2 26.346C25.5371 26.843 24.749 27.1456 23.9239 27.2202C23.0988 27.2947 22.2692 27.1381 21.528 26.768C20.8958 26.4519 20.3478 25.9901 19.9291 25.4206C19.5104 24.8511 19.2331 24.1902 19.12 23.4925C19.0069 22.7947 19.0613 22.0801 19.2786 21.4075C19.4959 20.7349 19.87 20.1236 20.37 19.624L31.9 8.1C33.2001 6.80001 34.7436 5.76884 36.4422 5.06536C38.1409 4.36188 39.9614 3.99987 41.8 4H62V28" stroke="currentColor" stroke-width="2" stroke-miterlimit="10" stroke-linecap="square"/>
</svg>
