<svg width="64" height="64" viewBox="0 0 64 64" fill="none" xmlns="http://www.w3.org/2000/svg">
<path d="M41.9 22.1L51.798 12.202" stroke="currentColor" stroke-width="2" stroke-miterlimit="10"/>
<path d="M41.9 41.9L51.798 51.798" stroke="currentColor" stroke-width="2" stroke-miterlimit="10"/>
<path d="M22.1 41.9L12.202 51.798" stroke="currentColor" stroke-width="2" stroke-miterlimit="10"/>
<path d="M22.1 22.1L12.202 12.202" stroke="currentColor" stroke-width="2" stroke-miterlimit="10"/>
<path d="M32 60C47.464 60 60 47.464 60 32C60 16.536 47.464 4 32 4C16.536 4 4 16.536 4 32C4 47.464 16.536 60 32 60Z" stroke="currentColor" stroke-width="2" stroke-miterlimit="10" stroke-linecap="square"/>
<path d="M32 46C39.732 46 46 39.732 46 32C46 24.268 39.732 18 32 18C24.268 18 18 24.268 18 32C18 39.732 24.268 46 32 46Z" stroke="currentColor" stroke-width="2" stroke-miterlimit="10" stroke-linecap="square"/>
</svg>
