<svg width="64" height="64" viewBox="0 0 64 64" fill="none" xmlns="http://www.w3.org/2000/svg">
<path d="M32 42V52V51M32 42L26 36M32 42L38 36" stroke="currentColor" stroke-width="2" stroke-miterlimit="10" stroke-linecap="square"/>
<path d="M32 52C43.0456 52 52 43.0456 52 32C52 20.9544 43.0456 12 32 12C20.9544 12 12 20.9544 12 32C12 43.0456 20.9544 52 32 52Z" stroke="currentColor" stroke-width="2" stroke-miterlimit="10" stroke-linecap="square"/>
<path d="M23 50L24 62H40L41 50" stroke="currentColor" stroke-width="2" stroke-miterlimit="10"/>
<path d="M32 2V4" stroke="currentColor" stroke-width="2" stroke-miterlimit="10" stroke-linecap="square"/>
<path d="M62 32H60" stroke="currentColor" stroke-width="2" stroke-miterlimit="10" stroke-linecap="square"/>
<path d="M4 32H2" stroke="currentColor" stroke-width="2" stroke-miterlimit="10" stroke-linecap="square"/>
<path d="M53.2132 10.7868L51.799 12.201" stroke="currentColor" stroke-width="2" stroke-miterlimit="10" stroke-linecap="square"/>
<path d="M12.2009 12.201L10.7867 10.7868" stroke="currentColor" stroke-width="2" stroke-miterlimit="10" stroke-linecap="square"/>
</svg>
