<svg width="64" height="64" viewBox="0 0 64 64" fill="none" xmlns="http://www.w3.org/2000/svg">
<path d="M43.76 4.31398C43.0817 3.60358 42.27 3.03383 41.3713 2.63727C40.4727 2.24071 39.5047 2.02513 38.5227 2.00284C37.5407 1.98055 36.564 2.152 35.6483 2.50737C34.7326 2.86275 33.8959 3.39509 33.186 4.07398C32.73 4.50804 32.3314 4.99869 32 5.53398C31.3977 4.5645 30.5816 3.74571 29.614 3.1403C28.6465 2.53489 27.5533 2.15891 26.418 2.04116C25.2828 1.92341 24.1356 2.06701 23.0645 2.46096C21.9933 2.8549 21.0264 3.48876 20.238 4.31398C18.8013 5.81925 17.9997 7.82013 17.9997 9.90098C17.9997 11.9818 18.8013 13.9827 20.238 15.488L32 27.662L43.762 15.488C45.1989 13.9827 46.0004 11.9816 46.0001 9.90058C45.9997 7.81958 45.1974 5.81876 43.76 4.31398Z" stroke="currentColor" stroke-width="2" stroke-miterlimit="10" stroke-linecap="square"/>
<path d="M14 62V58L3.444 45.686C2.51178 44.5981 1.99957 43.2126 2 41.78V24C2 22.9391 2.42143 21.9217 3.17157 21.1716C3.92172 20.4214 4.93913 20 6 20C7.06087 20 8.07828 20.4214 8.82843 21.1716C9.57857 21.9217 10 22.9391 10 24V34.834" stroke="currentColor" stroke-width="2" stroke-miterlimit="10" stroke-linecap="square"/>
<path d="M28 62V48.486C28.0001 47.6977 27.8449 46.9172 27.5432 46.189C27.2416 45.4608 26.7994 44.7992 26.242 44.242L17 35C16.2042 34.2046 15.1251 33.7579 14 33.7579C12.8749 33.7579 11.7958 34.2046 11 35C10.2047 35.7958 9.75792 36.8748 9.75792 38C9.75792 39.1251 10.2047 40.2041 11 41L18 48" stroke="currentColor" stroke-width="2" stroke-miterlimit="10" stroke-linecap="square"/>
<path d="M50 62V58L60.556 45.686C61.4882 44.5981 62.0004 43.2126 62 41.78V24C62 22.9391 61.5786 21.9217 60.8284 21.1716C60.0783 20.4214 59.0609 20 58 20C56.9391 20 55.9217 20.4214 55.1716 21.1716C54.4214 21.9217 54 22.9391 54 24V34.834" stroke="currentColor" stroke-width="2" stroke-miterlimit="10" stroke-linecap="square"/>
<path d="M36 62V48.486C35.9999 47.6977 36.1551 46.9172 36.4568 46.189C36.7584 45.4608 37.2006 44.7992 37.758 44.242L47 35C47.7958 34.2046 48.8749 33.7579 50 33.7579C51.1251 33.7579 52.2042 34.2046 53 35C53.7953 35.7958 54.2421 36.8748 54.2421 38C54.2421 39.1251 53.7953 40.2041 53 41L46 48" stroke="currentColor" stroke-width="2" stroke-miterlimit="10" stroke-linecap="square"/>
</svg>
