<svg width="64" height="64" viewBox="0 0 64 64" fill="none" xmlns="http://www.w3.org/2000/svg">
<path d="M22 60.0001H52C53.6915 60.0024 55.3278 59.3983 56.6121 58.2975C57.8964 57.1967 58.7436 55.672 59 54.0001L62 30.0001C62.0147 29.2081 61.8695 28.4213 61.5731 27.6867C61.2768 26.9522 60.8354 26.2849 60.2753 25.7248C59.7152 25.1647 59.0479 24.7233 58.3133 24.4269C57.5787 24.1306 56.792 23.9854 56 24.0001H38V15.0821C37.8042 10.5476 35.9152 6.25147 32.706 3.04206C32.1317 2.52046 31.4184 2.17666 30.6526 2.05232C29.8869 1.92799 29.1015 2.02846 28.3916 2.34156C27.6818 2.65466 27.078 3.16695 26.6535 3.81632C26.229 4.46568 26.002 5.22425 26 6.00005V18.0001L14 32.0001" stroke="currentColor" stroke-width="2" stroke-miterlimit="10"/>
<path d="M14 26H2V60H14V26Z" stroke="currentColor" stroke-width="2" stroke-miterlimit="10" stroke-linecap="square"/>
</svg>
