<svg width="64" height="64" viewBox="0 0 64 64" fill="none" xmlns="http://www.w3.org/2000/svg">
<path d="M55.096 32L32 56L8.90401 32C7.49401 30.5126 6.42237 28.7378 5.76256 26.7973C5.10276 24.8569 4.8704 22.7967 5.08141 20.758C5.29243 18.7194 5.94183 16.7504 6.98509 14.9863C8.02834 13.2221 9.44078 11.7044 11.1255 10.5373C12.8103 9.37014 14.7276 8.58115 16.7458 8.22441C18.7641 7.86768 20.8356 7.95163 22.8184 8.47051C24.8012 8.9894 26.6483 9.93094 28.2331 11.2306C29.8179 12.5302 31.1029 14.1572 32 16C32.8971 14.1572 34.1821 12.5302 35.7669 11.2306C37.3517 9.93094 39.1988 8.9894 41.1816 8.47051C43.1644 7.95163 45.2359 7.86768 47.2542 8.22441C49.2724 8.58115 51.1897 9.37014 52.8745 10.5373C54.5592 11.7044 55.9717 13.2221 57.0149 14.9863C58.0582 16.7504 58.7076 18.7194 58.9186 20.758C59.1296 22.7967 58.8973 24.8569 58.2375 26.7973C57.5776 28.7378 56.506 30.5126 55.096 32Z" stroke="currentColor" stroke-width="2" stroke-miterlimit="10" stroke-linecap="square"/>
</svg>
