<svg version="1.0" class="jq-star-svg" shape-rendering="geometricPrecision" xmlns="http://www.w3.org/2000/svg" x="0px" y="0px" width="305px" height="305px" viewBox="60 -62 309 309" style="enable-background:new 64 -59 305 305; stroke-width:0px;" xml:space="preserve"><style type="text/css">.svg-empty-214{fill:url(#214_SVGID_1_);}.svg-hovered-214{fill:url(#214_SVGID_2_);}.svg-active-214{fill:url(#214_SVGID_3_);}.svg-rated-214{fill:#FFC107;}</style><linearGradient id="214_SVGID_1_" gradientUnits="userSpaceOnUse" x1="0" y1="-50" x2="0" y2="250"><stop offset="0" style="stop-color:lightgray"></stop><stop offset="1" style="stop-color:lightgray"></stop> </linearGradient><linearGradient id="214_SVGID_2_" gradientUnits="userSpaceOnUse" x1="0" y1="-50" x2="0" y2="250"><stop offset="0" style="stop-color:slategray"></stop><stop offset="1" style="stop-color:slategray"></stop> </linearGradient><linearGradient id="214_SVGID_3_" gradientUnits="userSpaceOnUse" x1="0" y1="-50" x2="0" y2="250"><stop offset="0" style="stop-color:cornflowerblue"></stop><stop offset="1" style="stop-color:cornflowerblue"></stop> </linearGradient><polygon data-side="center" class="svg-empty-214" points="281.1,129.8 364,55.7 255.5,46.8 214,-59 172.5,46.8 64,55.4 146.8,129.7 121.1,241 212.9,181.1 213.9,181 306.5,241 " style="fill: transparent; stroke: black;"></polygon><polygon data-side="left" class="svg-rated-214" points="281.1,129.8 364,55.7 255.5,46.8 214,-59 172.5,46.8 64,55.4 146.8,129.7 121.1,241 213.9,181.1 213.9,181 306.5,241 " style="fill:#FFC107"></polygon><polygon data-side="right" class="svg-empty-214" points="364,55.7 255.5,46.8 214,-59 213.9,181 306.5,241 281.1,129.8 " style="stroke-opacity: 0;"></polygon></svg>
