<svg xmlns="http://www.w3.org/2000/svg" width="24" height="24" viewBox="0 0 24 24">
    <path fill-rule="evenodd" clip-rule="evenodd" d="M2.66667 9.33333C2.66667 5.65143 5.65143 2.66667 9.33333 2.66667C13.0152 2.66667 16 5.65143 16 9.33333C16 11.1297 15.2895 12.7601 14.1342 13.9589L13.9589 14.1342C12.7601 15.2895 11.1297 16 9.33333 16C5.65143 16 2.66667 13.0152 2.66667 9.33333ZM14.9228 16.8086C13.3647 17.9755 11.4297 18.6667 9.33333 18.6667C4.17868 18.6667 0 14.488 0 9.33333C0 4.17868 4.17868 0 9.33333 0C14.488 0 18.6667 4.17868 18.6667 9.33333C18.6667 11.4298 17.9754 13.3649 16.8084 14.923L23.2189 21.3335L21.3333 23.2191L14.9228 16.8086Z" fill="currentColor"/>
</svg>
