<svg width="25" height="24" viewBox="0 0 25 24" xmlns="http://www.w3.org/2000/svg">
<g clip-path="url(#clip0_8574_2787)">
<path fill-rule="evenodd" clip-rule="evenodd" d="M3.5319 10C3.5319 6.31812 6.51667 3.33335 10.1986 3.33335C13.8805 3.33335 16.8652 6.31812 16.8652 10C16.8652 11.7964 16.1547 13.4268 14.9995 14.6256L14.8242 14.8009C13.6253 15.9562 11.9949 16.6667 10.1986 16.6667C6.51667 16.6667 3.5319 13.6819 3.5319 10ZM15.788 17.4753C14.2299 18.6422 12.295 19.3334 10.1986 19.3334C5.04391 19.3334 0.865234 15.1547 0.865234 10C0.865234 4.84536 5.04391 0.666687 10.1986 0.666687C15.3532 0.666687 19.5319 4.84536 19.5319 10C19.5319 12.0965 18.8407 14.0316 17.6737 15.5897L24.0841 22.0001L22.1985 23.8858L15.788 17.4753Z"/>
</g>
<defs>
<clipPath id="clip0_8574_2787">
<rect width="24" height="24" fill="white" transform="translate(0.199219 3.05176e-05)"/>
</clipPath>
</defs>
</svg>
